<svg id="visual" viewBox="0 0 960 540" width="960" height="540" xmlns="http://www.w3.org/2000/svg" xmlns:xlink="http://www.w3.org/1999/xlink" version="1.1"><rect width="960" height="540" fill="#f7f7f7"></rect><g><g transform="translate(392 375)"><path d="M0 -112.6L79.6 -79.6L112.6 0L79.6 79.6L0 112.6L-79.6 79.6L-112.6 0L-79.6 -79.6Z" fill="none" stroke="#c91c81" stroke-width="2"></path></g><g transform="translate(748 178)"><path d="M0 -91L64.3 -64.3L91 0L64.3 64.3L0 91L-64.3 64.3L-91 0L-64.3 -64.3Z" fill="none" stroke="#c91c81" stroke-width="2"></path></g><g transform="translate(89 497)"><path d="M0 -105L74.2 -74.2L105 0L74.2 74.2L0 105L-74.2 74.2L-105 0L-74.2 -74.2Z" fill="none" stroke="#c91c81" stroke-width="2"></path></g><g transform="translate(228 71)"><path d="M0 -94L66.5 -66.5L94 0L66.5 66.5L0 94L-66.5 66.5L-94 0L-66.5 -66.5Z" stroke="#c91c81" fill="none" stroke-width="2"></path></g><g transform="translate(484 20)"><path d="M0 -85L60.1 -60.1L85 0L60.1 60.1L0 85L-60.1 60.1L-85 0L-60.1 -60.1Z" stroke="#c91c81" fill="none" stroke-width="2"></path></g><g transform="translate(695 474)"><path d="M0 -95L67.2 -67.2L95 0L67.2 67.2L0 95L-67.2 67.2L-95 0L-67.2 -67.2Z" stroke="#c91c81" fill="none" stroke-width="2"></path></g><g transform="translate(921 499)"><path d="M0 -106L75 -75L106 0L75 75L0 106L-75 75L-106 0L-75 -75Z" stroke="#c91c81" fill="none" stroke-width="2"></path></g><g transform="translate(957 66)"><path d="M0 -106L75 -75L106 0L75 75L0 106L-75 75L-106 0L-75 -75Z" stroke="#c91c81" fill="none" stroke-width="2"></path></g><g transform="translate(7 249)"><path d="M0 -105L74.2 -74.2L105 0L74.2 74.2L0 105L-74.2 74.2L-105 0L-74.2 -74.2Z" stroke="#c91c81" fill="none" stroke-width="2"></path></g></g></svg>