<svg id="visual" viewBox="0 0 960 540" width="960" height="540" xmlns="http://www.w3.org/2000/svg" xmlns:xlink="http://www.w3.org/1999/xlink" version="1.1"><rect x="0" y="0" width="960" height="540" fill="#FFF"></rect><path d="M0 147L20 153C40 159 80 171 120 180C160 189 200 195 240 193.8C280 192.7 320 184.3 360 175.5C400 166.7 440 157.3 480 151.5C520 145.7 560 143.3 600 166.5C640 189.7 680 238.3 720 247.5C760 256.7 800 226.3 840 216.5C880 206.7 920 217.3 940 222.7L960 228L960 541L940 541C920 541 880 541 840 541C800 541 760 541 720 541C680 541 640 541 600 541C560 541 520 541 480 541C440 541 400 541 360 541C320 541 280 541 240 541C200 541 160 541 120 541C80 541 40 541 20 541L0 541Z" fill="#7fbbd6"></path><path d="M0 275L20 274.5C40 274 80 273 120 270.5C160 268 200 264 240 261.5C280 259 320 258 360 259.5C400 261 440 265 480 254.7C520 244.3 560 219.7 600 222.7C640 225.7 680 256.3 720 268.2C760 280 800 273 840 272.3C880 271.7 920 277.3 940 280.2L960 283L960 541L940 541C920 541 880 541 840 541C800 541 760 541 720 541C680 541 640 541 600 541C560 541 520 541 480 541C440 541 400 541 360 541C320 541 280 541 240 541C200 541 160 541 120 541C80 541 40 541 20 541L0 541Z" fill="#73b4da"></path><path d="M0 204L20 205C40 206 80 208 120 216.3C160 224.7 200 239.3 240 258.5C280 277.7 320 301.3 360 313C400 324.7 440 324.3 480 321.7C520 319 560 314 600 301C640 288 680 267 720 250.2C760 233.3 800 220.7 840 215.7C880 210.7 920 213.3 940 214.7L960 216L960 541L940 541C920 541 880 541 840 541C800 541 760 541 720 541C680 541 640 541 600 541C560 541 520 541 480 541C440 541 400 541 360 541C320 541 280 541 240 541C200 541 160 541 120 541C80 541 40 541 20 541L0 541Z" fill="#6dacdd"></path><path d="M0 320L20 312.3C40 304.7 80 289.3 120 292.3C160 295.3 200 316.7 240 325C280 333.3 320 328.7 360 311.7C400 294.7 440 265.3 480 254.2C520 243 560 250 600 258C640 266 680 275 720 278.8C760 282.7 800 281.3 840 273.7C880 266 920 252 940 245L960 238L960 541L940 541C920 541 880 541 840 541C800 541 760 541 720 541C680 541 640 541 600 541C560 541 520 541 480 541C440 541 400 541 360 541C320 541 280 541 240 541C200 541 160 541 120 541C80 541 40 541 20 541L0 541Z" fill="#6ca2df"></path><path d="M0 282L20 282.2C40 282.3 80 282.7 120 293.3C160 304 200 325 240 336.8C280 348.7 320 351.3 360 355.7C400 360 440 366 480 364.3C520 362.7 560 353.3 600 352.5C640 351.7 680 359.3 720 363.3C760 367.3 800 367.7 840 352.8C880 338 920 308 940 293L960 278L960 541L940 541C920 541 880 541 840 541C800 541 760 541 720 541C680 541 640 541 600 541C560 541 520 541 480 541C440 541 400 541 360 541C320 541 280 541 240 541C200 541 160 541 120 541C80 541 40 541 20 541L0 541Z" fill="#7298df"></path><path d="M0 363L20 360C40 357 80 351 120 344.5C160 338 200 331 240 339.3C280 347.7 320 371.3 360 369.8C400 368.3 440 341.7 480 341C520 340.3 560 365.7 600 368C640 370.3 680 349.7 720 338.8C760 328 800 327 840 334.2C880 341.3 920 356.7 940 364.3L960 372L960 541L940 541C920 541 880 541 840 541C800 541 760 541 720 541C680 541 640 541 600 541C560 541 520 541 480 541C440 541 400 541 360 541C320 541 280 541 240 541C200 541 160 541 120 541C80 541 40 541 20 541L0 541Z" fill="#7c8ddd"></path><path d="M0 357L20 356.5C40 356 80 355 120 354.7C160 354.3 200 354.7 240 355.3C280 356 320 357 360 352.8C400 348.7 440 339.3 480 338C520 336.7 560 343.3 600 355.8C640 368.3 680 386.7 720 393.7C760 400.7 800 396.3 840 394.3C880 392.3 920 392.7 940 392.8L960 393L960 541L940 541C920 541 880 541 840 541C800 541 760 541 720 541C680 541 640 541 600 541C560 541 520 541 480 541C440 541 400 541 360 541C320 541 280 541 240 541C200 541 160 541 120 541C80 541 40 541 20 541L0 541Z" fill="#8a80d7"></path><path d="M0 420L20 412.2C40 404.3 80 388.7 120 386.3C160 384 200 395 240 399.8C280 404.7 320 403.3 360 397.3C400 391.3 440 380.7 480 373.3C520 366 560 362 600 369C640 376 680 394 720 394.5C760 395 800 378 840 379.5C880 381 920 401 940 411L960 421L960 541L940 541C920 541 880 541 840 541C800 541 760 541 720 541C680 541 640 541 600 541C560 541 520 541 480 541C440 541 400 541 360 541C320 541 280 541 240 541C200 541 160 541 120 541C80 541 40 541 20 541L0 541Z" fill="#9a72cd"></path><path d="M0 418L20 419C40 420 80 422 120 422C160 422 200 420 240 420.5C280 421 320 424 360 422.7C400 421.3 440 415.7 480 410.3C520 405 560 400 600 399.7C640 399.3 680 403.7 720 403.8C760 404 800 400 840 398.3C880 396.7 920 397.3 940 397.7L960 398L960 541L940 541C920 541 880 541 840 541C800 541 760 541 720 541C680 541 640 541 600 541C560 541 520 541 480 541C440 541 400 541 360 541C320 541 280 541 240 541C200 541 160 541 120 541C80 541 40 541 20 541L0 541Z" fill="#a962bf"></path><path d="M0 471L20 468C40 465 80 459 120 451.3C160 443.7 200 434.3 240 432.7C280 431 320 437 360 438.8C400 440.7 440 438.3 480 444.5C520 450.7 560 465.3 600 464.2C640 463 680 446 720 440.3C760 434.7 800 440.3 840 445.5C880 450.7 920 455.3 940 457.7L960 460L960 541L940 541C920 541 880 541 840 541C800 541 760 541 720 541C680 541 640 541 600 541C560 541 520 541 480 541C440 541 400 541 360 541C320 541 280 541 240 541C200 541 160 541 120 541C80 541 40 541 20 541L0 541Z" fill="#b650ae"></path><path d="M0 507L20 506C40 505 80 503 120 497.8C160 492.7 200 484.3 240 482.2C280 480 320 484 360 480.3C400 476.7 440 465.3 480 465.7C520 466 560 478 600 484.3C640 490.7 680 491.3 720 492.7C760 494 800 496 840 495.7C880 495.3 920 492.7 940 491.3L960 490L960 541L940 541C920 541 880 541 840 541C800 541 760 541 720 541C680 541 640 541 600 541C560 541 520 541 480 541C440 541 400 541 360 541C320 541 280 541 240 541C200 541 160 541 120 541C80 541 40 541 20 541L0 541Z" fill="#c13a99"></path><path d="M0 488L20 493.2C40 498.3 80 508.7 120 508.3C160 508 200 497 240 498C280 499 320 512 360 512.5C400 513 440 501 480 494.7C520 488.3 560 487.7 600 490.7C640 493.7 680 500.3 720 504.2C760 508 800 509 840 512.7C880 516.3 920 522.7 940 525.8L960 529L960 541L940 541C920 541 880 541 840 541C800 541 760 541 720 541C680 541 640 541 600 541C560 541 520 541 480 541C440 541 400 541 360 541C320 541 280 541 240 541C200 541 160 541 120 541C80 541 40 541 20 541L0 541Z" fill="#c91c81"></path></svg>